<?xml version="1.0" encoding="utf-8"?>
<!-- Generator: Adobe Illustrator 14.0.0, SVG Export Plug-In . SVG Version: 6.00 Build 43363)  -->
<!DOCTYPE svg PUBLIC "-//W3C//DTD SVG 1.1//EN" "http://www.w3.org/Graphics/SVG/1.1/DTD/svg11.dtd">
<svg version="1.1" id="Layer_1" xmlns="http://www.w3.org/2000/svg" xmlns:xlink="http://www.w3.org/1999/xlink" x="0px" y="0px"
	 width="79px" height="96px" viewBox="0 0 79 96" enable-background="new 0 0 79 96" xml:space="preserve">
<g>
	<g>
		<path fill="#FFFFFF" d="M75.728,54.448c-0.005-0.03-0.005-0.094-0.001-0.173c-0.533-7.158-2.598-14.081-5.033-19.994H68.34
			L33.417,69.395l-9.803-13.278l36.821-36.831l-0.156-0.828l0.74-1.311l-0.506,0.295c-0.228-0.326,0.558-0.794,0.558-0.794
			S56.023,7.779,48.85,3.513c-0.32-0.069-0.61-0.132-0.93-0.13c-0.27,0.125-0.48,0.219-0.656,0.296
			c-0.076,0.059-0.151,0.109-0.227,0.162C46.97,3.899,46.898,3.946,46.829,4L6.553,44.276c-0.244,0.337-0.34,0.663-0.41,0.814
			C2.768,58.926,3.63,75.13,18.791,87.209c0,0,6.879,5.853,19.33,5.166c0,0,0.782-0.09,1.442-0.654
			c0.007-0.006,0.016-0.008,0.023-0.012L75.01,56.285C75.07,56.174,75.653,55.566,75.728,54.448z"/>
		<path fill="#FFFFFF" d="M59.31,18.082l1.125,1.203c0,0,0.797-0.734,0.922-1.375c0.085-0.438,0.016-0.766-0.359-1.391l-0.891,0.469
			L59.31,18.082z"/>
		<g>
			<path fill="#FFFFFF" d="M69.638,33.629c-0.751-0.017-1.813,1.156-1.813,1.156l3.156,0.281
				C70.75,34.504,70.596,33.65,69.638,33.629z"/>
		</g>
	</g>
</g>
</svg>
